<?xml version="1.0" encoding="UTF-8" standalone="no"?>
<svg
   width="16"
   height="16"
   viewBox="0 0 16 16"
   fill="none"
   version="1.1"
   id="svg6"
   xmlns="http://www.w3.org/2000/svg"
   xmlns:svg="http://www.w3.org/2000/svg">
  <defs
     id="defs10" />
  <path
     d="M6.5 8L8.11538 9.5L13.5 4.5"
     stroke="#333333"
     stroke-linecap="round"
     stroke-linejoin="round"
     id="path2" />
  <path
     d="M13.5 8C13.5 11.0376 11.0376 13.5 8 13.5C4.96243 13.5 2.5 11.0376 2.5 8C2.5 4.96243 4.96243 2.5 8 2.5C8.81896 2.5 9.59612 2.679 10.2945 3"
     stroke="#333333"
     stroke-linecap="round"
     stroke-linejoin="round"
     id="path4" />
  <path
     d="m 7.1080729,10.519327 1.61538,1.5 5.3846201,-4.9999996"
     stroke="#333333"
     stroke-linecap="round"
     stroke-linejoin="round"
     id="path297" />
  <path
     d="m 14.108073,10.519327 c 0,3.0376 -2.4624,5.5 -5.5000001,5.5 -3.03757,0 -5.5,-2.4624 -5.5,-5.5 0,-3.0375696 2.46243,-5.4999996 5.5,-5.4999996 0.81896,0 1.5961201,0.179 2.2945001,0.5"
     stroke="#333333"
     stroke-linecap="round"
     stroke-linejoin="round"
     id="path299" />
</svg>
